<mxfile host="app.diagrams.net" modified="2024-04-10T02:52:35.027Z" agent="Mozilla/5.0 (Macintosh; Intel Mac OS X 10_15_7) AppleWebKit/537.36 (KHTML, like Gecko) Chrome/123.0.0.0 Safari/537.36" etag="_pujheh4l9x9RYONF2On" version="24.2.3" type="github">
  <diagram name="Page-1" id="74e2e168-ea6b-b213-b513-2b3c1d86103e">
    <mxGraphModel dx="954" dy="739" grid="0" gridSize="10" guides="1" tooltips="1" connect="1" arrows="1" fold="1" page="1" pageScale="1" pageWidth="1100" pageHeight="850" background="none" math="0" shadow="0">
      <root>
        <mxCell id="0" />
        <mxCell id="1" parent="0" />
        <mxCell id="77e6c97f196da883-1" value="奖池" style="swimlane;html=1;childLayout=stackLayout;startSize=20;rounded=0;shadow=0;labelBackgroundColor=none;strokeWidth=1;fontFamily=Verdana;fontSize=8;align=center;" parent="1" vertex="1">
          <mxGeometry x="70" y="40" width="960" height="1628" as="geometry" />
        </mxCell>
        <mxCell id="77e6c97f196da883-40" style="edgeStyle=orthogonalEdgeStyle;rounded=1;html=1;labelBackgroundColor=none;startArrow=none;startFill=0;startSize=5;endArrow=classicThin;endFill=1;endSize=5;jettySize=auto;orthogonalLoop=1;strokeWidth=1;fontFamily=Verdana;fontSize=8" parent="77e6c97f196da883-1" edge="1">
          <mxGeometry relative="1" as="geometry">
            <mxPoint x="770" y="690" as="sourcePoint" />
            <mxPoint x="830" y="690" as="targetPoint" />
          </mxGeometry>
        </mxCell>
        <mxCell id="77e6c97f196da883-3" value="活动" style="swimlane;html=1;startSize=20;" parent="77e6c97f196da883-1" vertex="1">
          <mxGeometry y="20" width="461" height="1608" as="geometry" />
        </mxCell>
        <mxCell id="MT66Mh5YDrd_8wVJc7CR-4" value="" style="edgeStyle=none;curved=1;rounded=0;orthogonalLoop=1;jettySize=auto;html=1;fontSize=12;startSize=8;endSize=8;" edge="1" parent="77e6c97f196da883-3" source="MT66Mh5YDrd_8wVJc7CR-2" target="MT66Mh5YDrd_8wVJc7CR-3">
          <mxGeometry relative="1" as="geometry" />
        </mxCell>
        <mxCell id="MT66Mh5YDrd_8wVJc7CR-2" value="开始" style="rounded=1;whiteSpace=wrap;html=1;" vertex="1" parent="77e6c97f196da883-3">
          <mxGeometry x="134" y="71" width="120" height="60" as="geometry" />
        </mxCell>
        <mxCell id="MT66Mh5YDrd_8wVJc7CR-8" value="" style="edgeStyle=none;curved=1;rounded=0;orthogonalLoop=1;jettySize=auto;html=1;fontSize=12;startSize=8;endSize=8;" edge="1" parent="77e6c97f196da883-3" source="MT66Mh5YDrd_8wVJc7CR-3" target="MT66Mh5YDrd_8wVJc7CR-7">
          <mxGeometry relative="1" as="geometry" />
        </mxCell>
        <mxCell id="MT66Mh5YDrd_8wVJc7CR-3" value="查询当前进行中活动" style="whiteSpace=wrap;html=1;rounded=1;" vertex="1" parent="77e6c97f196da883-3">
          <mxGeometry x="134" y="251" width="120" height="60" as="geometry" />
        </mxCell>
        <mxCell id="MT66Mh5YDrd_8wVJc7CR-10" value="" style="edgeStyle=none;curved=1;rounded=0;orthogonalLoop=1;jettySize=auto;html=1;fontSize=12;startSize=8;endSize=8;" edge="1" parent="77e6c97f196da883-3" source="MT66Mh5YDrd_8wVJc7CR-7" target="MT66Mh5YDrd_8wVJc7CR-9">
          <mxGeometry relative="1" as="geometry" />
        </mxCell>
        <mxCell id="MT66Mh5YDrd_8wVJc7CR-13" value="" style="edgeStyle=none;curved=1;rounded=0;orthogonalLoop=1;jettySize=auto;html=1;fontSize=12;startSize=8;endSize=8;" edge="1" parent="77e6c97f196da883-3" source="MT66Mh5YDrd_8wVJc7CR-7" target="MT66Mh5YDrd_8wVJc7CR-12">
          <mxGeometry relative="1" as="geometry" />
        </mxCell>
        <mxCell id="MT66Mh5YDrd_8wVJc7CR-7" value="自动增长间隔是否大于0" style="rhombus;whiteSpace=wrap;html=1;rounded=1;" vertex="1" parent="77e6c97f196da883-3">
          <mxGeometry x="154" y="421" width="80" height="80" as="geometry" />
        </mxCell>
        <mxCell id="MT66Mh5YDrd_8wVJc7CR-9" value="结束" style="whiteSpace=wrap;html=1;rounded=1;" vertex="1" parent="77e6c97f196da883-3">
          <mxGeometry x="334" y="431" width="120" height="60" as="geometry" />
        </mxCell>
        <mxCell id="MT66Mh5YDrd_8wVJc7CR-15" value="" style="edgeStyle=none;curved=1;rounded=0;orthogonalLoop=1;jettySize=auto;html=1;fontSize=12;startSize=8;endSize=8;" edge="1" parent="77e6c97f196da883-3" source="MT66Mh5YDrd_8wVJc7CR-12" target="MT66Mh5YDrd_8wVJc7CR-14">
          <mxGeometry relative="1" as="geometry" />
        </mxCell>
        <mxCell id="MT66Mh5YDrd_8wVJc7CR-12" value="按照时间间隔执行自动增长" style="whiteSpace=wrap;html=1;rounded=1;" vertex="1" parent="77e6c97f196da883-3">
          <mxGeometry x="134" y="631" width="120" height="60" as="geometry" />
        </mxCell>
        <mxCell id="MT66Mh5YDrd_8wVJc7CR-17" value="" style="edgeStyle=none;curved=1;rounded=0;orthogonalLoop=1;jettySize=auto;html=1;fontSize=12;startSize=8;endSize=8;" edge="1" parent="77e6c97f196da883-3" source="MT66Mh5YDrd_8wVJc7CR-14" target="MT66Mh5YDrd_8wVJc7CR-16">
          <mxGeometry relative="1" as="geometry" />
        </mxCell>
        <mxCell id="MT66Mh5YDrd_8wVJc7CR-14" value="更新奖池金额&lt;div&gt;更新奖池金额记录&lt;/div&gt;" style="whiteSpace=wrap;html=1;rounded=1;" vertex="1" parent="77e6c97f196da883-3">
          <mxGeometry x="134" y="811" width="120" height="60" as="geometry" />
        </mxCell>
        <mxCell id="MT66Mh5YDrd_8wVJc7CR-16" value="结束" style="whiteSpace=wrap;html=1;rounded=1;" vertex="1" parent="77e6c97f196da883-3">
          <mxGeometry x="134" y="991" width="120" height="60" as="geometry" />
        </mxCell>
        <mxCell id="MT66Mh5YDrd_8wVJc7CR-1" value="合约" style="swimlane;html=1;startSize=20;" vertex="1" parent="77e6c97f196da883-1">
          <mxGeometry x="461" y="20" width="462" height="1608" as="geometry" />
        </mxCell>
        <mxCell id="MT66Mh5YDrd_8wVJc7CR-11" value="否" style="text;html=1;align=center;verticalAlign=middle;resizable=0;points=[];autosize=1;strokeColor=none;fillColor=none;fontSize=16;" vertex="1" parent="1">
          <mxGeometry x="324.5" y="487.5" width="34" height="31" as="geometry" />
        </mxCell>
      </root>
    </mxGraphModel>
  </diagram>
</mxfile>
